<svg width="24" height="24" viewBox="0 0 24 24" fill="none" xmlns="http://www.w3.org/2000/svg">
<g id="material-symbols-light:call">
<path id="Vector" d="M18.93 20C17.2447 20 15.5167 19.578 13.746 18.734C11.9753 17.8893 10.3273 16.7043 8.802 15.179C7.28867 13.653 6.11 12.008 5.266 10.244C4.422 8.48 4 6.75533 4 5.07C4 4.77 4.1 4.51667 4.3 4.31C4.5 4.10333 4.75 4 5.05 4H7.523C7.795 4 8.03233 4.08567 8.235 4.257C8.43767 4.42833 8.57467 4.64767 8.646 4.915L9.142 7.3C9.18867 7.58 9.18033 7.82433 9.117 8.033C9.05433 8.24167 8.94367 8.41267 8.785 8.546L6.59 10.592C7.00067 11.3373 7.45433 12.0293 7.951 12.668C8.44767 13.3073 8.97767 13.913 9.541 14.485C10.121 15.065 10.7457 15.605 11.415 16.105C12.0843 16.6043 12.819 17.0757 13.619 17.519L15.758 15.342C15.9207 15.1667 16.1037 15.051 16.307 14.995C16.5103 14.9397 16.735 14.9287 16.981 14.962L19.085 15.392C19.3563 15.4587 19.5767 15.5953 19.746 15.802C19.9153 16.0093 20 16.247 20 16.515V18.95C20 19.25 19.8967 19.5 19.69 19.7C19.4833 19.9 19.23 20 18.93 20Z" fill="#13152E"/>
</g>
</svg>
