<svg width="21" height="21" viewBox="0 0 21 21" fill="none" xmlns="http://www.w3.org/2000/svg">
<g id="Social Media Icon/Instagram">
<path id="Instagram" fill-rule="evenodd" clip-rule="evenodd" d="M1.5 10.9297C1.5 7.33455 1.5 5.53698 2.35669 4.24224C2.73925 3.66408 3.23439 3.16893 3.81255 2.78638C5.10729 1.92969 6.90486 1.92969 10.5 1.92969C14.0951 1.92969 15.8927 1.92969 17.1874 2.78638C17.7656 3.16893 18.2608 3.66408 18.6433 4.24224C19.5 5.53698 19.5 7.33455 19.5 10.9297C19.5 14.5248 19.5 16.3224 18.6433 17.6171C18.2608 18.1953 17.7656 18.6904 17.1874 19.073C15.8927 19.9297 14.0951 19.9297 10.5 19.9297C6.90486 19.9297 5.10729 19.9297 3.81255 19.073C3.23439 18.6904 2.73925 18.1953 2.35669 17.6171C1.5 16.3224 1.5 14.5248 1.5 10.9297ZM15.1593 10.9299C15.1593 13.5032 13.0732 15.5893 10.4998 15.5893C7.92652 15.5893 5.84043 13.5032 5.84043 10.9299C5.84043 8.35659 7.92652 6.27051 10.4998 6.27051C13.0732 6.27051 15.1593 8.35659 15.1593 10.9299ZM10.4998 14.0129C12.2025 14.0129 13.5828 12.6326 13.5828 10.9299C13.5828 9.22722 12.2025 7.84691 10.4998 7.84691C8.79714 7.84691 7.41684 9.22722 7.41684 10.9299C7.41684 12.6326 8.79714 14.0129 10.4998 14.0129ZM15.3433 7.13124C15.9479 7.13124 16.4381 6.64107 16.4381 6.03641C16.4381 5.43176 15.9479 4.94159 15.3433 4.94159C14.7386 4.94159 14.2485 5.43176 14.2485 6.03641C14.2485 6.64107 14.7386 7.13124 15.3433 7.13124Z" fill="#405789"/>
</g>
</svg>
