<svg width="19" height="19" viewBox="0 0 19 19" fill="none" xmlns="http://www.w3.org/2000/svg">
<g id="Group 73">
<path id="LinkedIn" d="M0.5 2.92078C0.5 2.34357 0.702708 1.86738 1.10811 1.49221C1.51351 1.11703 2.04055 0.929443 2.68919 0.929443C3.32626 0.929443 3.84169 1.11414 4.23552 1.48356C4.64092 1.86451 4.84363 2.36089 4.84363 2.97273C4.84363 3.52684 4.64672 3.98859 4.2529 4.35801C3.8475 4.73897 3.31467 4.92944 2.65444 4.92944H2.63707C1.99999 4.92944 1.48456 4.73897 1.09073 4.35801C0.696905 3.97706 0.5 3.49798 0.5 2.92078ZM0.725869 18.0723V6.5052H4.58301V18.0723H0.725869ZM6.72008 18.0723H10.5772V11.6134C10.5772 11.2094 10.6236 10.8977 10.7162 10.6784C10.8784 10.2859 11.1245 9.95396 11.4546 9.68269C11.7847 9.4114 12.1988 9.27576 12.6969 9.27576C13.9942 9.27576 14.6429 10.1473 14.6429 11.8905V18.0723H18.5V11.4403C18.5 9.73174 18.0946 8.43593 17.2838 7.55282C16.473 6.6697 15.4015 6.22814 14.0695 6.22814C12.5753 6.22814 11.4112 6.86883 10.5772 8.15022V8.18485H10.5598L10.5772 8.15022V6.5052H6.72008C6.74324 6.8746 6.75483 8.02322 6.75483 9.95109C6.75483 11.8789 6.74324 14.586 6.72008 18.0723Z" fill="#405789"/>
</g>
</svg>
