<svg width="17" height="19" viewBox="0 0 17 19" fill="none" xmlns="http://www.w3.org/2000/svg">
<g id="Group 1000006032">
<path id="Vector (Stroke)" fill-rule="evenodd" clip-rule="evenodd" d="M3.19556 1.76842C2.82203 1.76842 2.48006 1.90288 2.24125 2.11792C2.00551 2.3302 1.89342 2.59702 1.89342 2.85296V15.978C1.89342 16.2339 2.00551 16.5007 2.24125 16.713C2.48006 16.928 2.82203 17.0625 3.19556 17.0625H13.3985C13.772 17.0625 14.114 16.928 14.3528 16.713C14.5886 16.5007 14.7007 16.2339 14.7007 15.978V7.99032C14.7007 7.99027 14.7007 7.99037 14.7007 7.99032C14.7006 7.90847 14.6653 7.80853 14.5663 7.7194L8.13223 1.92567C8.1322 1.92565 8.13225 1.92569 8.13223 1.92567C8.03014 1.8338 7.8736 1.76847 7.69352 1.76842C7.69348 1.76842 7.69356 1.76842 7.69352 1.76842H3.19556ZM1.0579 0.80377C1.63914 0.280381 2.40937 0 3.19556 0H7.69352C8.28621 8.06451e-05 8.87098 0.211256 9.31544 0.611386L15.7498 6.40532C16.1972 6.80831 16.469 7.37594 16.4691 7.99002V15.978C16.4691 16.7663 16.1205 17.501 15.5362 18.0272C14.9549 18.5505 14.1847 18.8309 13.3985 18.8309H3.19556C2.40937 18.8309 1.63914 18.5505 1.0579 18.0272C0.473602 17.501 0.125 16.7663 0.125 15.978V2.85296C0.125 2.06461 0.473602 1.32992 1.0579 0.80377Z" fill="#98A2B3"/>
<path id="Vector (Stroke)_2" fill-rule="evenodd" clip-rule="evenodd" d="M8.2973 0.328125C8.78563 0.328125 9.18151 0.724 9.18151 1.21234V6.13421C9.18151 6.2161 9.21682 6.31601 9.31589 6.40521C9.41801 6.49718 9.57462 6.5625 9.75486 6.5625H15.2207C15.7091 6.5625 16.1049 6.95837 16.1049 7.44671C16.1049 7.93505 15.7091 8.33092 15.2207 8.33092H9.75486C9.16196 8.33092 8.57709 8.11968 8.13253 7.71936C7.68491 7.31629 7.41309 6.74851 7.41309 6.13421V1.21234C7.41309 0.724 7.80896 0.328125 8.2973 0.328125Z" fill="#98A2B3"/>
</g>
</svg>
