<svg width="21" height="21" viewBox="0 0 21 21" fill="none" xmlns="http://www.w3.org/2000/svg">
<g id="Social Media Icon/Twitter">
<path id="Twitter" d="M13.5271 3.93269V3.92944H14.3711L14.6794 3.99104C14.885 4.03102 15.0717 4.08342 15.2394 4.14826C15.4071 4.21309 15.5694 4.28874 15.7263 4.37517C15.8832 4.46161 16.0255 4.54969 16.1532 4.63937C16.2798 4.72798 16.3934 4.82199 16.4941 4.9214C16.5936 5.02189 16.7489 5.04782 16.9599 4.9992C17.1709 4.95057 17.3981 4.88303 17.6416 4.79659C17.885 4.71015 18.1258 4.6129 18.3638 4.50484C18.6019 4.39678 18.7469 4.32817 18.7988 4.299C18.8497 4.26875 18.8768 4.25254 18.88 4.25037L18.8832 4.24551L18.8995 4.2374L18.9157 4.2293L18.9319 4.22119L18.9482 4.21309L18.9514 4.20823L18.9563 4.20499L18.9612 4.20174L18.9644 4.19688L18.9806 4.19202L18.9968 4.18878L18.9936 4.21309L18.9887 4.2374L18.9806 4.26172L18.9725 4.28603L18.9644 4.30224L18.9563 4.31845L18.9482 4.34276C18.9427 4.35897 18.9373 4.38057 18.9319 4.40759C18.9265 4.43461 18.8751 4.54266 18.7777 4.73176C18.6803 4.92086 18.5586 5.11266 18.4125 5.30716C18.2665 5.50166 18.1355 5.6486 18.0198 5.74803C17.9029 5.84852 17.8255 5.91875 17.7876 5.95874C17.7498 5.99979 17.7038 6.03761 17.6497 6.07219L17.5685 6.12568L17.5523 6.13379L17.5361 6.14189L17.5328 6.14675L17.528 6.15L17.5231 6.15324L17.5198 6.1581L17.5036 6.1662L17.4874 6.17431L17.4841 6.17917L17.4793 6.18241L17.4744 6.18565L17.4711 6.19052L17.4679 6.19538L17.463 6.19862L17.4582 6.20186L17.4549 6.20672H17.5361L17.9905 6.10947C18.2935 6.04464 18.583 5.96631 18.8589 5.87445L19.2971 5.72858L19.3458 5.71237L19.3702 5.70426L19.3864 5.69616L19.4026 5.68806L19.4188 5.67995L19.4351 5.67185L19.4675 5.66698L19.5 5.66374V5.69616L19.4919 5.6994L19.4838 5.70426L19.4805 5.70913L19.4757 5.71237L19.4708 5.71561L19.4675 5.72047L19.4643 5.72534L19.4594 5.72858L19.4546 5.73182L19.4513 5.73668L19.4481 5.74154L19.4432 5.74479L19.4351 5.76099L19.427 5.7772L19.4221 5.78044C19.4199 5.78369 19.3512 5.87552 19.216 6.05599C19.0807 6.23752 19.0077 6.32936 18.9968 6.33153C18.986 6.33477 18.9709 6.35098 18.9514 6.38015C18.933 6.4104 18.8183 6.53089 18.6073 6.7416C18.3963 6.95231 18.1897 7.13978 17.9873 7.30403C17.7839 7.46936 17.6811 7.6725 17.6789 7.91347C17.6757 8.15335 17.6632 8.42459 17.6416 8.72713C17.6199 9.02969 17.5794 9.35655 17.5198 9.70774C17.4603 10.0589 17.3684 10.456 17.2439 10.8991C17.1195 11.3421 16.968 11.7743 16.7894 12.1957C16.6109 12.6172 16.4243 12.9953 16.2295 13.3303C16.0347 13.6653 15.8562 13.9489 15.6939 14.1813C15.5316 14.4136 15.3666 14.6324 15.1988 14.8377C15.0311 15.043 14.819 15.2743 14.5626 15.5314C14.3051 15.7875 14.1644 15.928 14.1406 15.9528C14.1157 15.9766 14.0097 16.0652 13.8225 16.2187C13.6363 16.3732 13.4362 16.5277 13.2219 16.6822C13.0088 16.8357 12.8129 16.9637 12.6344 17.0664C12.4558 17.169 12.2405 17.2862 11.9884 17.4181C11.7373 17.551 11.4657 17.6742 11.1736 17.7876C10.8814 17.9011 10.573 18.0064 10.2484 18.1037C9.92381 18.2009 9.61001 18.2766 9.30703 18.3306C9.00407 18.3846 8.66051 18.4306 8.27637 18.4684L7.70018 18.5251V18.5332H6.64518V18.5251L6.50721 18.517C6.41525 18.5116 6.3395 18.5062 6.27998 18.5008C6.22048 18.4954 5.99594 18.4657 5.6064 18.4117C5.21686 18.3576 4.91119 18.3036 4.68936 18.2496C4.46755 18.1955 4.13751 18.0929 3.69928 17.9416C3.26105 17.7903 2.88611 17.6374 2.57448 17.4829C2.26394 17.3295 2.06917 17.2322 1.99017 17.1912C1.91226 17.1512 1.82462 17.1015 1.72723 17.042L1.58115 16.9529L1.57792 16.948L1.57304 16.9448L1.56817 16.9416L1.56492 16.9367L1.54869 16.9286L1.53246 16.9205L1.52923 16.9156L1.52435 16.9124L1.51948 16.9091L1.51623 16.9043L1.513 16.8994L1.50812 16.8962H1.5V16.8638L1.51623 16.867L1.53246 16.8719L1.6055 16.88C1.65419 16.8854 1.78675 16.8935 2.00316 16.9043C2.21958 16.9151 2.4495 16.9151 2.69297 16.9043C2.93643 16.8935 3.18531 16.8692 3.43959 16.8313C3.69387 16.7935 3.99414 16.7287 4.3404 16.6368C4.68667 16.545 5.00479 16.4359 5.29479 16.3094C5.58369 16.1819 5.78927 16.0868 5.91156 16.0242C6.03274 15.9626 6.21777 15.848 6.46664 15.6805L6.83995 15.4293L6.84319 15.4244L6.84806 15.4212L6.85295 15.418L6.85618 15.4131L6.85942 15.4082L6.86429 15.405L6.86918 15.4018L6.87241 15.3969L6.88864 15.392L6.90487 15.3888L6.90812 15.3726L6.91298 15.3564L6.91787 15.3531L6.9211 15.3483L6.79125 15.3402C6.70469 15.3348 6.62083 15.3294 6.53968 15.324C6.45852 15.3186 6.33139 15.2942 6.15825 15.251C5.98513 15.2078 5.79848 15.143 5.59829 15.0565C5.39811 14.9701 5.20334 14.8674 5.01398 14.7486C4.82463 14.6297 4.68774 14.5308 4.60334 14.4519C4.52002 14.3741 4.41181 14.2639 4.27872 14.1213C4.14671 13.9776 4.03201 13.8301 3.93463 13.6788C3.83724 13.5275 3.74419 13.353 3.65547 13.1553L3.52074 12.8603L3.51262 12.836L3.50451 12.8117L3.49964 12.7954L3.49639 12.7792L3.52074 12.7825L3.54509 12.7873L3.72362 12.8117C3.84266 12.8279 4.02932 12.8333 4.28359 12.8279C4.53788 12.8225 4.71371 12.8117 4.81109 12.7954C4.90848 12.7792 4.96799 12.7684 4.98963 12.763L5.02209 12.7549L5.06267 12.7468L5.10325 12.7387L5.10649 12.7339L5.11136 12.7306L5.11625 12.7274L5.11948 12.7225L5.08702 12.7144L5.05455 12.7063L5.02209 12.6982L4.98963 12.6901L4.95717 12.682C4.93553 12.6766 4.89767 12.6658 4.84355 12.6496C4.78946 12.6334 4.64338 12.5739 4.40532 12.4713C4.16728 12.3686 3.97791 12.2687 3.83724 12.1714C3.69622 12.0739 3.56176 11.9672 3.43472 11.8521C3.30812 11.7354 3.16908 11.5852 3.01758 11.4015C2.8661 11.2178 2.73085 11.0044 2.61181 10.7613C2.49279 10.5182 2.40352 10.2858 2.344 10.0643C2.28472 9.84411 2.24561 9.61897 2.22716 9.39168L2.19793 9.0513L2.21416 9.05454L2.23039 9.0594L2.24662 9.06751L2.26285 9.07561L2.27908 9.08372L2.29531 9.09182L2.54689 9.20528C2.71462 9.28092 2.92291 9.34576 3.17178 9.39978C3.42066 9.4538 3.56943 9.48353 3.61812 9.48893L3.69116 9.49703H3.83724L3.83401 9.49217L3.82913 9.48893L3.82426 9.48569L3.82101 9.48082L3.81778 9.47596L3.81289 9.47272L3.80803 9.46948L3.80478 9.46461L3.78855 9.45651L3.77232 9.44841L3.76909 9.44354L3.7642 9.4403L3.75933 9.43706L3.75609 9.4322L3.73986 9.42409L3.72362 9.41599L3.72039 9.41113C3.71715 9.40896 3.67061 9.37438 3.58079 9.30739C3.49206 9.23932 3.39901 9.15126 3.30162 9.0432C3.20424 8.93513 3.10685 8.82168 3.00947 8.70282C2.9119 8.58369 2.82501 8.45624 2.74977 8.32192C2.67404 8.18686 2.59396 8.01503 2.50956 7.80649C2.42625 7.59903 2.36294 7.38994 2.31966 7.17923C2.27639 6.96852 2.25204 6.76052 2.24662 6.55521C2.24121 6.34989 2.24662 6.17431 2.26285 6.02843C2.27908 5.88256 2.31154 5.71777 2.36023 5.53408C2.40893 5.35039 2.47927 5.15588 2.57124 4.95057L2.7092 4.64261L2.71731 4.6183L2.72543 4.59399L2.73031 4.59075L2.73354 4.58588L2.73679 4.58102L2.74166 4.57778L2.74654 4.58102L2.74977 4.58588L2.75302 4.59075L2.75789 4.59399L2.76278 4.59723L2.76601 4.60209L2.76925 4.60695L2.77412 4.6102L2.78224 4.6264L2.79035 4.64261L2.79524 4.64586L2.79847 4.65072L3.01758 4.89384C3.16366 5.05593 3.3368 5.23693 3.53697 5.43683C3.73716 5.63672 3.84807 5.74046 3.8697 5.74803C3.89135 5.75667 3.91839 5.78151 3.95086 5.82259C3.98332 5.86257 4.09153 5.9582 4.27547 6.10947C4.45943 6.26075 4.70019 6.43635 4.99775 6.63625C5.29532 6.83615 5.62534 7.03335 5.98783 7.22785C6.35033 7.42236 6.73987 7.59794 7.15645 7.75463C7.57304 7.91131 7.8652 8.01396 8.03291 8.06259C8.20064 8.11121 8.48738 8.17334 8.89315 8.24898C9.29892 8.32463 9.60461 8.37325 9.81019 8.39486C10.0158 8.41647 10.1565 8.4289 10.2322 8.43214L10.3458 8.43538L10.3426 8.41107L10.3377 8.38676L10.3052 8.18415C10.2836 8.04909 10.2728 7.85998 10.2728 7.61686C10.2728 7.37373 10.2917 7.14952 10.3296 6.94421C10.3675 6.7389 10.4243 6.53089 10.5 6.32018C10.5757 6.10947 10.6499 5.94036 10.7224 5.81286C10.796 5.68643 10.8923 5.54218 11.0113 5.3801C11.1303 5.21801 11.2845 5.05053 11.4739 4.87764C11.6632 4.70474 11.8796 4.55076 12.1231 4.4157C12.3665 4.28063 12.5911 4.17797 12.7967 4.10774C13.0023 4.0375 13.1754 3.99157 13.3161 3.96996C13.4567 3.94836 13.5271 3.93593 13.5271 3.93269Z" fill="#405789"/>
</g>
</svg>
