<svg width="21" height="19" viewBox="0 0 21 19" fill="none" xmlns="http://www.w3.org/2000/svg">
<path id="Vector" d="M17.125 4H14.125V3C14.125 2.20435 13.8089 1.44129 13.2463 0.87868C12.6837 0.316071 11.9206 0 11.125 0H9.125C8.32935 0 7.56629 0.316071 7.00368 0.87868C6.44107 1.44129 6.125 2.20435 6.125 3V4H3.125C2.32935 4 1.56629 4.31607 1.00368 4.87868C0.441071 5.44129 0.125 6.20435 0.125 7V16C0.125 16.7956 0.441071 17.5587 1.00368 18.1213C1.56629 18.6839 2.32935 19 3.125 19H17.125C17.9206 19 18.6837 18.6839 19.2463 18.1213C19.8089 17.5587 20.125 16.7956 20.125 16V7C20.125 6.20435 19.8089 5.44129 19.2463 4.87868C18.6837 4.31607 17.9206 4 17.125 4ZM8.125 3C8.125 2.73478 8.23036 2.48043 8.41789 2.29289C8.60543 2.10536 8.85978 2 9.125 2H11.125C11.3902 2 11.6446 2.10536 11.8321 2.29289C12.0196 2.48043 12.125 2.73478 12.125 3V4H8.125V3ZM18.125 16C18.125 16.2652 18.0196 16.5196 17.8321 16.7071C17.6446 16.8946 17.3902 17 17.125 17H3.125C2.85978 17 2.60543 16.8946 2.41789 16.7071C2.23036 16.5196 2.125 16.2652 2.125 16V10.5C4.67126 11.5101 7.38569 12.0293 10.125 12.03C12.8642 12.0283 15.5785 11.5092 18.125 10.5V16ZM18.125 8.31C15.6034 9.41778 12.8792 9.98978 10.125 9.98978C7.37079 9.98978 4.6466 9.41778 2.125 8.31V7C2.125 6.73478 2.23036 6.48043 2.41789 6.29289C2.60543 6.10536 2.85978 6 3.125 6H17.125C17.3902 6 17.6446 6.10536 17.8321 6.29289C18.0196 6.48043 18.125 6.73478 18.125 7V8.31Z" fill="#98A2B3"/>
</svg>
