<svg width="21" height="19" viewBox="0 0 21 19" fill="none" xmlns="http://www.w3.org/2000/svg">
<path id="Vector" fill-rule="evenodd" clip-rule="evenodd" d="M11.1406 1.07812C11.1406 0.792188 11.027 0.517963 10.8248 0.315776C10.6227 0.113588 10.3484 0 10.0625 0C9.77656 0 9.50234 0.113588 9.30015 0.315776C9.09796 0.517963 8.98438 0.792188 8.98438 1.07812V5.39062C8.98438 5.67656 9.09796 5.95079 9.30015 6.15297C9.50234 6.35516 9.77656 6.46875 10.0625 6.46875C10.3484 6.46875 10.6227 6.35516 10.8248 6.15297C11.027 5.95079 11.1406 5.67656 11.1406 5.39062V1.07812ZM6.10938 4.3125C6.39531 4.3125 6.66954 4.42609 6.87172 4.62828C7.07391 4.83046 7.1875 5.10469 7.1875 5.39062C7.1875 5.67656 7.07391 5.95079 6.87172 6.15297C6.66954 6.35516 6.39531 6.46875 6.10938 6.46875H4.3125C3.74063 6.46875 3.19218 6.69593 2.7878 7.1003C2.38343 7.50468 2.15625 8.05313 2.15625 8.625V14.375C2.15625 14.9469 2.38343 15.4953 2.7878 15.8997C3.19218 16.3041 3.74063 16.5312 4.3125 16.5312H15.8125C16.3844 16.5312 16.9328 16.3041 17.3372 15.8997C17.7416 15.4953 17.9688 14.9469 17.9688 14.375V8.625C17.9688 8.05313 17.7416 7.50468 17.3372 7.1003C16.9328 6.69593 16.3844 6.46875 15.8125 6.46875H14.0156C13.7297 6.46875 13.4555 6.35516 13.2533 6.15297C13.0511 5.95079 12.9375 5.67656 12.9375 5.39062C12.9375 5.10469 13.0511 4.83046 13.2533 4.62828C13.4555 4.42609 13.7297 4.3125 14.0156 4.3125H15.8125C16.9562 4.3125 18.0531 4.76685 18.8619 5.5756C19.6706 6.38435 20.125 7.48125 20.125 8.625V14.375C20.125 15.5187 19.6706 16.6156 18.8619 17.4244C18.0531 18.2331 16.9562 18.6875 15.8125 18.6875H4.3125C3.16875 18.6875 2.07185 18.2331 1.2631 17.4244C0.454351 16.6156 0 15.5187 0 14.375V8.625C0 7.48125 0.454351 6.38435 1.2631 5.5756C2.07185 4.76685 3.16875 4.3125 4.3125 4.3125H6.10938ZM14.7344 10.7812C15.0203 10.7812 15.2945 10.6677 15.4967 10.4655C15.6989 10.2633 15.8125 9.98906 15.8125 9.70312C15.8125 9.41719 15.6989 9.14296 15.4967 8.94077C15.2945 8.73859 15.0203 8.625 14.7344 8.625H5.39062C5.10469 8.625 4.83046 8.73859 4.62828 8.94077C4.42609 9.14296 4.3125 9.41719 4.3125 9.70312C4.3125 9.98906 4.42609 10.2633 4.62828 10.4655C4.83046 10.6677 5.10469 10.7812 5.39062 10.7812H14.7344ZM11.5 13.2969C11.5 13.5828 11.3864 13.857 11.1842 14.0592C10.982 14.2614 10.7078 14.375 10.4219 14.375H5.39062C5.10469 14.375 4.83046 14.2614 4.62828 14.0592C4.42609 13.857 4.3125 13.5828 4.3125 13.2969C4.3125 13.0109 4.42609 12.7367 4.62828 12.5345C4.83046 12.3323 5.10469 12.2188 5.39062 12.2188H10.4219C10.7078 12.2188 10.982 12.3323 11.1842 12.5345C11.3864 12.7367 11.5 13.0109 11.5 13.2969Z" fill="#98A2B3"/>
</svg>
