<svg width="21" height="21" viewBox="0 0 21 21" fill="none" xmlns="http://www.w3.org/2000/svg">
<g id="Social Media Icon/Whatsapp">
<path id="Whatsapp" fill-rule="evenodd" clip-rule="evenodd" d="M1.5 10.9296C1.5 5.96667 5.53698 1.92969 10.4999 1.92969V1.92984H10.5052C15.4681 1.92984 19.5051 5.96682 19.5051 10.9298C19.5051 15.8926 15.4681 19.9297 10.5052 19.9297C8.67444 19.9297 6.97602 19.3848 5.55281 18.443L2.09252 19.5486L3.21424 16.2048C2.13493 14.7232 1.5 12.8979 1.5 10.9296ZM7.41537 6.05666C7.67983 6.06741 7.81213 6.08324 7.98669 6.5012C8.04308 6.6373 8.12055 6.82524 8.20544 7.03119C8.44721 7.61769 8.74921 8.35032 8.79617 8.44824C8.85964 8.58054 8.92325 8.76047 8.83321 8.93503C8.75444 9.10242 8.68486 9.18284 8.56902 9.3167C8.56034 9.32674 8.5514 9.33707 8.54217 9.34777C8.48555 9.41346 8.42992 9.47235 8.37442 9.53108C8.30025 9.60959 8.22633 9.68783 8.15065 9.7817C8.14853 9.78419 8.14641 9.78668 8.14428 9.78917C8.02439 9.92984 7.89409 10.0827 8.04492 10.3426C8.19828 10.6018 8.72734 11.4641 9.50517 12.1572C10.4283 12.9781 11.1907 13.2864 11.5345 13.4254C11.5652 13.4378 11.5925 13.4489 11.6163 13.4588C11.8331 13.5489 12.0925 13.5277 12.2512 13.3583C12.4233 13.1728 12.6301 12.8827 12.8453 12.5808C12.8817 12.5298 12.9183 12.4784 12.955 12.4271C13.1348 12.1731 13.3622 12.1413 13.6004 12.2312C13.8438 12.3159 15.1296 12.9508 15.3941 13.0831C15.4481 13.1102 15.4983 13.1343 15.5447 13.1566C15.7252 13.2434 15.8462 13.3016 15.8967 13.39C15.9603 13.5011 15.9603 14.0249 15.7433 14.6388C15.5264 15.2523 14.6639 15.7605 13.9761 15.9086C13.5053 16.0091 12.8914 16.0886 10.8227 15.2314C8.37233 14.2168 6.72987 11.836 6.3958 11.3517C6.3692 11.3131 6.35089 11.2866 6.34113 11.2738C6.33741 11.2686 6.333 11.2626 6.32792 11.2557C6.15983 11.0258 5.27242 9.81257 5.27242 8.55933C5.27242 7.30448 5.89226 6.67456 6.16985 6.39245C6.17786 6.38431 6.18559 6.37646 6.193 6.3689C6.40997 6.1467 6.76969 6.04621 7.11374 6.04621C7.21436 6.0467 7.31495 6.05019 7.41537 6.05666Z" fill="#405789"/>
</g>
</svg>
