<svg fill="none" height="15" viewBox="0 0 20 15" width="20" xmlns="http://www.w3.org/2000/svg"><path d="m10.4209 14.3429-3.89803-.0729c-1.26211-.0254-2.52735.0253-3.76471-.2377-1.882313-.393-2.015663-2.3197-2.155199-3.9359-.192267-2.27219-.117834-4.5856.244997-6.83881.204832-1.26428 1.010922-2.01869 2.257512-2.10078 4.20817-.297932 8.44433-.262624 12.64313-.12363.4435.01274.89.08239 1.3272.16166 2.1585.38664 2.2111 2.5701 2.351 4.40817.1396 1.85703.0806 3.72359-.1861 5.56799-.2139 1.5271-.6233 2.8077-2.3509 2.9313-2.1647.1617-4.2796.2918-6.4503.2504.0001-.0098-.0124-.0098-.0186-.0098zm-2.29165-3.8662c1.63122-.95712 3.23135-1.89828 4.85325-2.84897-1.6343-.95712-3.23136-1.89828-4.85325-2.84897z" fill="#405789"/></svg>